<mxfile host="app.diagrams.net" modified="2021-07-14T01:51:36.843Z" agent="5.0 (Windows NT 10.0; Win64; x64) AppleWebKit/537.36 (KHTML, like Gecko) Chrome/91.0.4472.124 Safari/537.36" etag="yvKRyUFZc-o3UvkL__YV" version="14.8.6" type="github">
  <diagram id="prtHgNgQTEPvFCAcTncT" name="Page-1">
    <mxGraphModel dx="1038" dy="1716" grid="1" gridSize="10" guides="1" tooltips="1" connect="1" arrows="1" fold="1" page="1" pageScale="1" pageWidth="827" pageHeight="1169" math="0" shadow="0">
      <root>
        <mxCell id="0" />
        <mxCell id="1" parent="0" />
        <mxCell id="4NSoJLnf_AFnWM2vLafK-1" value="人脸采集" style="swimlane;" vertex="1" parent="1">
          <mxGeometry x="20" y="-1160" width="800" height="620" as="geometry">
            <mxRectangle x="65" y="-60" width="130" height="23" as="alternateBounds" />
          </mxGeometry>
        </mxCell>
        <mxCell id="4NSoJLnf_AFnWM2vLafK-2" value="移动设备" style="swimlane;" vertex="1" parent="4NSoJLnf_AFnWM2vLafK-1">
          <mxGeometry y="23" width="220" height="597" as="geometry" />
        </mxCell>
      </root>
    </mxGraphModel>
  </diagram>
</mxfile>
